<mxfile host="app.diagrams.net" modified="2024-02-01T01:32:11.659Z" agent="Mozilla/5.0 (Windows NT 10.0; Win64; x64) AppleWebKit/537.36 (KHTML, like Gecko) Chrome/121.0.0.0 Safari/537.36" etag="eDO4GYpcpXVxYFE2KkjY" version="23.1.0" type="github">
  <diagram name="Halaman-1" id="Js7iKQhYVoL3zzT2i7Mf">
    <mxGraphModel dx="1434" dy="772" grid="1" gridSize="10" guides="1" tooltips="1" connect="1" arrows="1" fold="1" page="1" pageScale="1" pageWidth="827" pageHeight="1169" math="0" shadow="0">
      <root>
        <mxCell id="0" />
        <mxCell id="1" parent="0" />
        <mxCell id="354LQxdZZLvbYOei-pZE-1" value="" style="rounded=0;whiteSpace=wrap;html=1;" vertex="1" parent="1">
          <mxGeometry x="250" y="180" width="330" height="480" as="geometry" />
        </mxCell>
        <mxCell id="354LQxdZZLvbYOei-pZE-3" value="pengunjung" style="shape=umlActor;verticalLabelPosition=bottom;verticalAlign=top;html=1;outlineConnect=0;" vertex="1" parent="1">
          <mxGeometry x="30" y="285" width="110" height="190" as="geometry" />
        </mxCell>
        <mxCell id="354LQxdZZLvbYOei-pZE-9" value="perpus di gital" style="text;strokeColor=none;align=center;fillColor=none;html=1;verticalAlign=middle;whiteSpace=wrap;rounded=0;" vertex="1" parent="1">
          <mxGeometry x="370" y="190" width="80" height="30" as="geometry" />
        </mxCell>
        <mxCell id="354LQxdZZLvbYOei-pZE-13" value="" style="ellipse;whiteSpace=wrap;html=1;" vertex="1" parent="1">
          <mxGeometry x="354" y="230" width="120" height="80" as="geometry" />
        </mxCell>
        <mxCell id="354LQxdZZLvbYOei-pZE-14" value="" style="ellipse;whiteSpace=wrap;html=1;" vertex="1" parent="1">
          <mxGeometry x="355" y="340" width="120" height="80" as="geometry" />
        </mxCell>
        <mxCell id="354LQxdZZLvbYOei-pZE-16" value="form pengunjung" style="text;strokeColor=none;align=center;fillColor=none;html=1;verticalAlign=middle;whiteSpace=wrap;rounded=0;" vertex="1" parent="1">
          <mxGeometry x="384" y="255" width="60" height="30" as="geometry" />
        </mxCell>
        <mxCell id="354LQxdZZLvbYOei-pZE-17" value="pencarian buku" style="text;strokeColor=none;align=center;fillColor=none;html=1;verticalAlign=middle;whiteSpace=wrap;rounded=0;" vertex="1" parent="1">
          <mxGeometry x="385" y="365" width="60" height="30" as="geometry" />
        </mxCell>
        <mxCell id="354LQxdZZLvbYOei-pZE-18" value="" style="ellipse;whiteSpace=wrap;html=1;" vertex="1" parent="1">
          <mxGeometry x="355" y="440" width="120" height="80" as="geometry" />
        </mxCell>
        <mxCell id="354LQxdZZLvbYOei-pZE-19" value="" style="ellipse;whiteSpace=wrap;html=1;" vertex="1" parent="1">
          <mxGeometry x="355" y="545" width="120" height="80" as="geometry" />
        </mxCell>
        <mxCell id="354LQxdZZLvbYOei-pZE-23" value="masukan kode buku" style="text;strokeColor=none;align=center;fillColor=none;html=1;verticalAlign=middle;whiteSpace=wrap;rounded=0;" vertex="1" parent="1">
          <mxGeometry x="385" y="465" width="60" height="30" as="geometry" />
        </mxCell>
        <mxCell id="354LQxdZZLvbYOei-pZE-24" value="hasil" style="text;strokeColor=none;align=center;fillColor=none;html=1;verticalAlign=middle;whiteSpace=wrap;rounded=0;" vertex="1" parent="1">
          <mxGeometry x="385" y="570" width="60" height="30" as="geometry" />
        </mxCell>
        <mxCell id="354LQxdZZLvbYOei-pZE-31" value="pusakawan" style="shape=umlActor;verticalLabelPosition=bottom;verticalAlign=top;html=1;outlineConnect=0;" vertex="1" parent="1">
          <mxGeometry x="670" y="310" width="110" height="190" as="geometry" />
        </mxCell>
        <mxCell id="354LQxdZZLvbYOei-pZE-34" value="" style="endArrow=none;html=1;rounded=0;" edge="1" parent="1" source="354LQxdZZLvbYOei-pZE-3">
          <mxGeometry width="50" height="50" relative="1" as="geometry">
            <mxPoint x="140" y="280" as="sourcePoint" />
            <mxPoint x="180" y="270" as="targetPoint" />
          </mxGeometry>
        </mxCell>
        <mxCell id="354LQxdZZLvbYOei-pZE-35" value="" style="endArrow=none;html=1;rounded=0;entryX=0;entryY=0.5;entryDx=0;entryDy=0;" edge="1" parent="1" target="354LQxdZZLvbYOei-pZE-13">
          <mxGeometry width="50" height="50" relative="1" as="geometry">
            <mxPoint x="180" y="270" as="sourcePoint" />
            <mxPoint x="440" y="370" as="targetPoint" />
          </mxGeometry>
        </mxCell>
        <mxCell id="354LQxdZZLvbYOei-pZE-39" value="" style="endArrow=none;html=1;rounded=0;" edge="1" parent="1">
          <mxGeometry width="50" height="50" relative="1" as="geometry">
            <mxPoint x="160" y="400" as="sourcePoint" />
            <mxPoint x="360" y="363" as="targetPoint" />
          </mxGeometry>
        </mxCell>
        <mxCell id="354LQxdZZLvbYOei-pZE-40" value="" style="endArrow=none;html=1;rounded=0;" edge="1" parent="1" source="354LQxdZZLvbYOei-pZE-18">
          <mxGeometry width="50" height="50" relative="1" as="geometry">
            <mxPoint x="390" y="420" as="sourcePoint" />
            <mxPoint x="160" y="440" as="targetPoint" />
          </mxGeometry>
        </mxCell>
        <mxCell id="354LQxdZZLvbYOei-pZE-41" value="" style="endArrow=none;html=1;rounded=0;" edge="1" parent="1" target="354LQxdZZLvbYOei-pZE-31">
          <mxGeometry width="50" height="50" relative="1" as="geometry">
            <mxPoint x="610" y="270" as="sourcePoint" />
            <mxPoint x="440" y="370" as="targetPoint" />
          </mxGeometry>
        </mxCell>
        <mxCell id="354LQxdZZLvbYOei-pZE-48" value="" style="endArrow=none;html=1;rounded=0;exitX=1;exitY=0.5;exitDx=0;exitDy=0;" edge="1" parent="1" source="354LQxdZZLvbYOei-pZE-13">
          <mxGeometry width="50" height="50" relative="1" as="geometry">
            <mxPoint x="390" y="420" as="sourcePoint" />
            <mxPoint x="610" y="270" as="targetPoint" />
          </mxGeometry>
        </mxCell>
        <mxCell id="354LQxdZZLvbYOei-pZE-49" value="" style="endArrow=none;html=1;rounded=0;entryX=0.942;entryY=0.263;entryDx=0;entryDy=0;entryPerimeter=0;" edge="1" parent="1" source="354LQxdZZLvbYOei-pZE-31" target="354LQxdZZLvbYOei-pZE-14">
          <mxGeometry width="50" height="50" relative="1" as="geometry">
            <mxPoint x="390" y="420" as="sourcePoint" />
            <mxPoint x="440" y="370" as="targetPoint" />
          </mxGeometry>
        </mxCell>
        <mxCell id="354LQxdZZLvbYOei-pZE-50" value="" style="endArrow=none;html=1;rounded=0;entryX=1;entryY=0.5;entryDx=0;entryDy=0;" edge="1" parent="1" source="354LQxdZZLvbYOei-pZE-31" target="354LQxdZZLvbYOei-pZE-18">
          <mxGeometry width="50" height="50" relative="1" as="geometry">
            <mxPoint x="660" y="450" as="sourcePoint" />
            <mxPoint x="480" y="470" as="targetPoint" />
          </mxGeometry>
        </mxCell>
        <mxCell id="354LQxdZZLvbYOei-pZE-51" value="" style="endArrow=none;html=1;rounded=0;exitX=1;exitY=0.425;exitDx=0;exitDy=0;exitPerimeter=0;" edge="1" parent="1" source="354LQxdZZLvbYOei-pZE-19" target="354LQxdZZLvbYOei-pZE-31">
          <mxGeometry width="50" height="50" relative="1" as="geometry">
            <mxPoint x="390" y="420" as="sourcePoint" />
            <mxPoint x="440" y="370" as="targetPoint" />
          </mxGeometry>
        </mxCell>
      </root>
    </mxGraphModel>
  </diagram>
</mxfile>
